<svg xmlns="http://www.w3.org/2000/svg" xmlns:xlink="http://www.w3.org/1999/xlink" width="1080" zoomAndPan="magnify" viewBox="0 0 810 809.999993" height="1080" preserveAspectRatio="xMidYMid meet" version="1.0"><defs><clipPath id="9b6a9a14dd"><path d="M 220.320312 81 L 607.320312 81 L 607.320312 760.5 L 220.320312 760.5 Z M 220.320312 81 " clip-rule="nonzero"/></clipPath><clipPath id="eb7e4eda57"><path d="M 297 81 L 607.320312 81 L 607.320312 760.5 L 297 760.5 Z M 297 81 " clip-rule="nonzero"/></clipPath></defs><g clip-path="url(#9b6a9a14dd)"><path fill="#d9f1ee" d="M 607.140625 114.8125 C 607.140625 148.117188 591.769531 427.445312 575.984375 528.445312 C 560.199219 629.429688 546.84375 719.679688 529.851562 731.496094 C 521.375 737.390625 505.203125 744.613281 484.761719 750.382812 C 464.3125 756.148438 439.59375 760.453125 414.023438 760.5 L 413.617188 760.5 C 362.480469 760.410156 314.734375 743.28125 297.78125 731.496094 C 291.867188 727.382812 286.394531 713.757812 281.101562 693.492188 C 271.203125 655.539062 261.941406 594.273438 251.652344 528.445312 C 235.871094 427.445312 220.496094 148.117188 220.496094 114.8125 C 220.496094 82.125 407.152344 80.972656 414.023438 81.152344 C 414.621094 81.128906 416.5625 81.125 419.617188 81.15625 C 451.785156 81.40625 607.140625 84.957031 607.140625 114.8125 " fill-opacity="1" fill-rule="nonzero"/></g><g clip-path="url(#eb7e4eda57)"><path fill="#bfddd9" d="M 607.140625 114.8125 C 607.140625 148.117188 591.769531 427.445312 575.984375 528.445312 C 560.199219 629.429688 546.84375 719.679688 529.851562 731.496094 C 521.375 737.390625 505.203125 744.613281 484.761719 750.382812 C 464.3125 756.148438 439.59375 760.453125 414.023438 760.5 L 413.617188 760.5 C 362.480469 760.410156 314.734375 743.28125 297.78125 731.496094 C 291.867188 727.382812 407.28125 692.660156 452.316406 617.816406 C 551.308594 453.285156 542.347656 264.265625 419.617188 81.15625 C 451.785156 81.40625 607.140625 84.957031 607.140625 114.8125 " fill-opacity="1" fill-rule="nonzero"/></g><path fill="#aed3cc" d="M 589.417969 120.898438 C 589.417969 136.960938 510.800781 149.980469 413.820312 149.980469 C 316.839844 149.980469 238.222656 136.960938 238.222656 120.898438 C 238.222656 104.839844 316.839844 91.820312 413.820312 91.820312 C 510.800781 91.820312 589.417969 104.839844 589.417969 120.898438 " fill-opacity="1" fill-rule="nonzero"/><path fill="#f30531" d="M 584.507812 208.292969 C 584.507812 234.730469 570.933594 456.414062 557 536.558594 C 543.0625 616.714844 531.273438 688.339844 516.265625 697.71875 C 508.785156 702.386719 494.507812 708.128906 476.457031 712.707031 C 458.398438 717.28125 436.574219 720.699219 414 720.734375 L 413.640625 720.734375 C 386.164062 720.695312 359.792969 715.636719 339.988281 709.578125 C 327.25 705.683594 317.226562 701.375 311.363281 697.71875 C 296.367188 688.339844 284.570312 616.714844 270.640625 536.558594 C 269.558594 530.316406 268.46875 523.210938 267.398438 515.414062 C 254.671875 423.058594 243.132812 232.671875 243.132812 208.292969 C 243.132812 182.351562 407.933594 181.4375 414 181.574219 C 415.484375 181.539062 426.5 181.570312 442.277344 182.015625 C 452.113281 182.296875 463.800781 182.738281 476.183594 183.421875 C 524.941406 186.136719 584.507812 192.679688 584.507812 208.292969 " fill-opacity="1" fill-rule="nonzero"/><path fill="#e50722" d="M 584.507812 208.292969 C 584.507812 234.730469 570.933594 456.414062 557 536.558594 C 543.0625 616.714844 531.273438 688.339844 516.265625 697.71875 C 508.785156 702.386719 494.507812 708.128906 476.457031 712.707031 C 458.398438 717.28125 436.574219 720.699219 414 720.734375 L 413.640625 720.734375 C 386.164062 720.695312 359.792969 715.636719 339.988281 709.578125 C 339.988281 709.578125 399.433594 687.320312 452.316406 617.8125 C 505.929688 547.347656 541.960938 333.519531 476.183594 183.421875 C 524.941406 186.136719 584.507812 192.679688 584.507812 208.292969 " fill-opacity="1" fill-rule="nonzero"/><path fill="#fc1d4d" d="M 584.222656 204.648438 C 584.222656 217.394531 508.125 227.730469 414.253906 227.730469 C 320.386719 227.730469 244.292969 217.394531 244.292969 204.648438 C 244.292969 191.902344 320.386719 181.570312 414.253906 181.570312 C 508.125 181.570312 584.222656 191.902344 584.222656 204.648438 " fill-opacity="1" fill-rule="nonzero"/><path fill="#fc625a" d="M 301.832031 412.71875 C 308.011719 497.765625 309.359375 566.980469 304.84375 567.304688 C 300.332031 567.636719 291.667969 498.957031 285.488281 413.90625 C 279.308594 328.859375 277.964844 259.648438 282.476562 259.320312 C 286.988281 258.992188 295.660156 327.671875 301.832031 412.71875 " fill-opacity="1" fill-rule="nonzero"/><path fill="#fc625a" d="M 314.214844 610.65625 C 315.171875 623.804688 313.707031 634.621094 310.953125 634.824219 C 308.195312 635.019531 305.191406 624.527344 304.234375 611.386719 C 303.28125 598.238281 304.738281 587.421875 307.496094 587.21875 C 310.253906 587.023438 313.261719 597.515625 314.214844 610.65625 " fill-opacity="1" fill-rule="nonzero"/><path fill="#e50722" d="M 444.652344 345.730469 C 444.652344 350.398438 441.453125 354.316406 437.128906 355.390625 C 436.347656 355.59375 435.535156 355.695312 434.699219 355.695312 C 429.199219 355.695312 424.746094 351.234375 424.746094 345.730469 C 424.746094 340.226562 429.199219 335.769531 434.699219 335.769531 C 435.535156 335.769531 436.347656 335.871094 437.128906 336.074219 C 441.453125 337.15625 444.652344 341.070312 444.652344 345.730469 " fill-opacity="1" fill-rule="nonzero"/><path fill="#fc1d4d" d="M 444.652344 345.730469 C 444.652344 350.398438 441.453125 354.316406 437.128906 355.390625 C 432.800781 354.316406 429.597656 350.398438 429.597656 345.730469 C 429.597656 341.070312 432.800781 337.15625 437.128906 336.074219 C 441.453125 337.15625 444.652344 341.070312 444.652344 345.730469 " fill-opacity="1" fill-rule="nonzero"/><path fill="#e50722" d="M 387.191406 476.222656 C 387.191406 480.886719 383.996094 484.804688 379.667969 485.882812 C 378.886719 486.085938 378.078125 486.183594 377.238281 486.183594 C 371.738281 486.183594 367.285156 481.726562 367.285156 476.222656 C 367.285156 470.71875 371.738281 466.261719 377.238281 466.261719 C 378.078125 466.261719 378.886719 466.363281 379.667969 466.5625 C 383.996094 467.644531 387.191406 471.5625 387.191406 476.222656 " fill-opacity="1" fill-rule="nonzero"/><path fill="#fc1d4d" d="M 387.191406 476.222656 C 387.191406 480.886719 383.996094 484.804688 379.667969 485.882812 C 375.335938 484.804688 372.136719 480.886719 372.136719 476.222656 C 372.136719 471.5625 375.335938 467.644531 379.667969 466.5625 C 383.996094 467.644531 387.191406 471.5625 387.191406 476.222656 " fill-opacity="1" fill-rule="nonzero"/><path fill="#e50722" d="M 321.878906 269.140625 C 321.878906 272.101562 319.84375 274.589844 317.09375 275.28125 C 316.601562 275.40625 316.085938 275.472656 315.550781 275.472656 C 312.058594 275.472656 309.226562 272.636719 309.226562 269.140625 C 309.226562 265.640625 312.058594 262.808594 315.550781 262.808594 C 316.085938 262.808594 316.601562 262.875 317.09375 263.003906 C 319.84375 263.6875 321.878906 266.175781 321.878906 269.140625 " fill-opacity="1" fill-rule="nonzero"/><path fill="#fc1d4d" d="M 321.878906 269.140625 C 321.878906 272.101562 319.84375 274.589844 317.09375 275.28125 C 314.34375 274.589844 312.3125 272.101562 312.3125 269.140625 C 312.3125 266.175781 314.34375 263.6875 317.09375 263.003906 C 319.84375 263.6875 321.878906 266.175781 321.878906 269.140625 " fill-opacity="1" fill-rule="nonzero"/><path fill="#e50722" d="M 327.6875 280.539062 C 327.6875 282.019531 326.671875 283.269531 325.300781 283.609375 C 325.050781 283.675781 324.789062 283.707031 324.523438 283.707031 C 322.773438 283.707031 321.363281 282.292969 321.363281 280.539062 C 321.363281 278.792969 322.773438 277.375 324.523438 277.375 C 324.789062 277.375 325.050781 277.410156 325.300781 277.472656 C 326.671875 277.816406 327.6875 279.058594 327.6875 280.539062 " fill-opacity="1" fill-rule="nonzero"/><path fill="#fc1d4d" d="M 327.6875 280.539062 C 327.6875 282.019531 326.671875 283.269531 325.300781 283.609375 C 323.921875 283.269531 322.902344 282.019531 322.902344 280.539062 C 322.902344 279.058594 323.921875 277.816406 325.300781 277.472656 C 326.671875 277.816406 327.6875 279.058594 327.6875 280.539062 " fill-opacity="1" fill-rule="nonzero"/><path fill="#e50722" d="M 379.667969 614.785156 C 379.667969 617.683594 377.679688 620.121094 374.988281 620.796875 C 374.503906 620.921875 374 620.984375 373.472656 620.984375 C 370.054688 620.984375 367.285156 618.210938 367.285156 614.785156 C 367.285156 611.363281 370.054688 608.585938 373.472656 608.585938 C 374 608.585938 374.503906 608.652344 374.988281 608.777344 C 377.679688 609.449219 379.667969 611.882812 379.667969 614.785156 " fill-opacity="1" fill-rule="nonzero"/><path fill="#fc1d4d" d="M 379.667969 614.785156 C 379.667969 617.683594 377.679688 620.121094 374.988281 620.796875 C 372.289062 620.121094 370.300781 617.683594 370.300781 614.785156 C 370.300781 611.882812 372.289062 609.449219 374.988281 608.777344 C 377.679688 609.449219 379.667969 611.882812 379.667969 614.785156 " fill-opacity="1" fill-rule="nonzero"/><path fill="#e50722" d="M 494.546875 642.117188 C 494.546875 645.019531 492.550781 647.449219 489.863281 648.125 C 489.378906 648.25 488.875 648.316406 488.351562 648.316406 C 484.929688 648.316406 482.15625 645.539062 482.15625 642.117188 C 482.15625 638.691406 484.929688 635.917969 488.351562 635.917969 C 488.875 635.917969 489.378906 635.980469 489.863281 636.105469 C 492.550781 636.777344 494.546875 639.21875 494.546875 642.117188 " fill-opacity="1" fill-rule="nonzero"/><path fill="#fc1d4d" d="M 494.546875 642.117188 C 494.546875 645.019531 492.550781 647.449219 489.863281 648.125 C 487.167969 647.449219 485.179688 645.019531 485.179688 642.117188 C 485.179688 639.21875 487.167969 636.777344 489.863281 636.105469 C 492.550781 636.777344 494.546875 639.21875 494.546875 642.117188 " fill-opacity="1" fill-rule="nonzero"/><path fill="#e50722" d="M 464.675781 353.9375 C 464.675781 356.839844 462.6875 359.277344 460 359.945312 C 459.511719 360.074219 459.007812 360.136719 458.484375 360.136719 C 455.066406 360.136719 452.292969 357.359375 452.292969 353.9375 C 452.292969 350.519531 455.066406 347.742188 458.484375 347.742188 C 459.007812 347.742188 459.511719 347.808594 460 347.933594 C 462.6875 348.605469 464.675781 351.039062 464.675781 353.9375 " fill-opacity="1" fill-rule="nonzero"/><path fill="#fc1d4d" d="M 464.675781 353.9375 C 464.675781 356.839844 462.6875 359.277344 460 359.945312 C 457.300781 359.277344 455.3125 356.839844 455.3125 353.9375 C 455.3125 351.039062 457.300781 348.605469 460 347.933594 C 462.6875 348.605469 464.675781 351.039062 464.675781 353.9375 " fill-opacity="1" fill-rule="nonzero"/></svg>